{
    "asset" : {
        "generator" : "Khronos glTF Blender I/O v1.8.19",
        "version" : "2.0"
    },
    "scene" : 0,
    "scenes" : [
        {
            "name" : "Scene",
            "nodes" : [
                12
            ]
        }
    ],
    "nodes" : [
        {
            "mesh" : 0,
            "name" : "Circle.001__0"
        },
        {
            "children" : [
                0
            ],
            "name" : "Circle.001",
            "rotation" : [
                -0.7071068286895752,
                0,
                0,
                0.7071067094802856
            ],
            "scale" : [
                100,
                100,
                100
            ]
        },
        {
            "mesh" : 1,
            "name" : "Circle.002__0"
        },
        {
            "children" : [
                2
            ],
            "name" : "Circle.002",
            "rotation" : [
                -0.7071068286895752,
                0,
                0,
                0.7071067094802856
            ],
            "scale" : [
                100,
                100,
                100
            ]
        },
        {
            "mesh" : 2,
            "name" : "Circle.003__0"
        },
        {
            "children" : [
                4
            ],
            "name" : "Circle.003",
            "rotation" : [
                -0.7071068286895752,
                0,
                0,
                0.7071067094802856
            ],
            "scale" : [
                100,
                100,
                100
            ]
        },
        {
            "mesh" : 3,
            "name" : "Circle.004__0"
        },
        {
            "children" : [
                6
            ],
            "name" : "Circle.004",
            "rotation" : [
                -0.7071068286895752,
                0,
                0,
                0.7071067094802856
            ],
            "scale" : [
                100,
                100,
                100
            ]
        },
        {
            "mesh" : 4,
            "name" : "NurbsPath__0"
        },
        {
            "children" : [
                8
            ],
            "name" : "NurbsPath",
            "rotation" : [
                -0.7071068286895752,
                0,
                0,
                0.7071067094802856
            ],
            "scale" : [
                100,
                100,
                100
            ]
        },
        {
            "children" : [
                1,
                3,
                5,
                7,
                9
            ],
            "name" : "RootNode"
        },
        {
            "children" : [
                10
            ],
            "name" : "3D_landmine_4.fbx",
            "rotation" : [
                0.7071068286895752,
                0,
                0,
                0.7071068286895752
            ],
            "scale" : [
                0.009999999776482582,
                0.009999999776482582,
                0.009999999776482582
            ]
        },
        {
            "children" : [
                11
            ],
            "name" : "Sketchfab_model",
            "rotation" : [
                -0.7071068286895752,
                0,
                0,
                0.7071068286895752
            ],
            "scale" : [
                4,
                4,
                4
            ]
        }
    ],
    "materials" : [
        {
            "doubleSided" : true,
            "name" : "Scene_-_Root",
            "normalTexture" : {
                "index" : 0
            },
            "occlusionTexture" : {
                "index" : 1
            },
            "pbrMetallicRoughness" : {
                "baseColorTexture" : {
                    "index" : 2
                },
                "metallicRoughnessTexture" : {
                    "index" : 1
                }
            }
        }
    ],
    "meshes" : [
        {
            "name" : "Circle.001__0",
            "primitives" : [
                {
                    "attributes" : {
                        "POSITION" : 0,
                        "NORMAL" : 1,
                        "TEXCOORD_0" : 2
                    },
                    "indices" : 3,
                    "material" : 0
                }
            ]
        },
        {
            "name" : "Circle.002__0",
            "primitives" : [
                {
                    "attributes" : {
                        "POSITION" : 4,
                        "NORMAL" : 5,
                        "TEXCOORD_0" : 6
                    },
                    "indices" : 7,
                    "material" : 0
                }
            ]
        },
        {
            "name" : "Circle.003__0",
            "primitives" : [
                {
                    "attributes" : {
                        "POSITION" : 8,
                        "NORMAL" : 9,
                        "TEXCOORD_0" : 10
                    },
                    "indices" : 11,
                    "material" : 0
                }
            ]
        },
        {
            "name" : "Circle.004__0",
            "primitives" : [
                {
                    "attributes" : {
                        "POSITION" : 12,
                        "NORMAL" : 13,
                        "TEXCOORD_0" : 14
                    },
                    "indices" : 15,
                    "material" : 0
                }
            ]
        },
        {
            "name" : "NurbsPath__0",
            "primitives" : [
                {
                    "attributes" : {
                        "POSITION" : 16,
                        "NORMAL" : 17,
                        "TEXCOORD_0" : 18
                    },
                    "indices" : 19,
                    "material" : 0
                }
            ]
        }
    ],
    "textures" : [
        {
            "sampler" : 0,
            "source" : 0
        },
        {
            "sampler" : 0,
            "source" : 1
        },
        {
            "sampler" : 0,
            "source" : 2
        }
    ],
    "images" : [
        {
            "bufferView" : 4,
            "mimeType" : "image/png",
            "name" : "Image_0"
        },
        {
            "bufferView" : 5,
            "mimeType" : "image/png",
            "name" : "Image_1"
        },
        {
            "bufferView" : 6,
            "mimeType" : "image/png",
            "name" : "Image_2"
        }
    ],
    "accessors" : [
        {
            "bufferView" : 0,
            "componentType" : 5126,
            "count" : 1504,
            "max" : [
                0.1131758838891983,
                0.13879476487636566,
                0.11366389691829681
            ],
            "min" : [
                -0.11317865550518036,
                -0.087559774518013,
                0.055253561586141586
            ],
            "type" : "VEC3"
        },
        {
            "bufferView" : 1,
            "componentType" : 5126,
            "count" : 1504,
            "type" : "VEC3"
        },
        {
            "bufferView" : 2,
            "componentType" : 5126,
            "count" : 1504,
            "type" : "VEC2"
        },
        {
            "bufferView" : 3,
            "componentType" : 5123,
            "count" : 8448,
            "type" : "SCALAR"
        },
        {
            "bufferView" : 7,
            "componentType" : 5126,
            "count" : 1496,
            "max" : [
                0.14258131384849548,
                0.30389249324798584,
                0.03946101292967796
            ],
            "min" : [
                -0.14258410036563873,
                0.24552513659000397,
                0.0185229554772377
            ],
            "type" : "VEC3"
        },
        {
            "bufferView" : 8,
            "componentType" : 5126,
            "count" : 1496,
            "type" : "VEC3"
        },
        {
            "bufferView" : 9,
            "componentType" : 5126,
            "count" : 1496,
            "type" : "VEC2"
        },
        {
            "bufferView" : 10,
            "componentType" : 5123,
            "count" : 4368,
            "type" : "SCALAR"
        },
        {
            "bufferView" : 11,
            "componentType" : 5126,
            "count" : 512,
            "max" : [
                0.01579788140952587,
                0.04386091232299805,
                0.12046761810779572
            ],
            "min" : [
                -0.015800654888153076,
                0.00737406499683857,
                0.048497434705495834
            ],
            "type" : "VEC3"
        },
        {
            "bufferView" : 12,
            "componentType" : 5126,
            "count" : 512,
            "type" : "VEC3"
        },
        {
            "bufferView" : 13,
            "componentType" : 5126,
            "count" : 512,
            "type" : "VEC2"
        },
        {
            "bufferView" : 14,
            "componentType" : 5123,
            "count" : 864,
            "type" : "SCALAR"
        },
        {
            "bufferView" : 15,
            "componentType" : 5126,
            "count" : 3101,
            "max" : [
                0.26986321806907654,
                0.2954820990562439,
                0.07800127565860748
            ],
            "min" : [
                -0.269866019487381,
                -0.2441912740468979,
                -4.101028480363311e-06
            ],
            "type" : "VEC3"
        },
        {
            "bufferView" : 16,
            "componentType" : 5126,
            "count" : 3101,
            "type" : "VEC3"
        },
        {
            "bufferView" : 17,
            "componentType" : 5126,
            "count" : 3101,
            "type" : "VEC2"
        },
        {
            "bufferView" : 18,
            "componentType" : 5123,
            "count" : 14397,
            "type" : "SCALAR"
        },
        {
            "bufferView" : 19,
            "componentType" : 5126,
            "count" : 1699,
            "max" : [
                0.11183486878871918,
                0.3667868375778198,
                0.03427264466881752
            ],
            "min" : [
                -0.11192002892494202,
                0.28587600588798523,
                0.023711323738098145
            ],
            "type" : "VEC3"
        },
        {
            "bufferView" : 20,
            "componentType" : 5126,
            "count" : 1699,
            "type" : "VEC3"
        },
        {
            "bufferView" : 21,
            "componentType" : 5126,
            "count" : 1699,
            "type" : "VEC2"
        },
        {
            "bufferView" : 22,
            "componentType" : 5123,
            "count" : 6828,
            "type" : "SCALAR"
        }
    ],
    "bufferViews" : [
        {
            "buffer" : 0,
            "byteLength" : 18048,
            "byteOffset" : 0
        },
        {
            "buffer" : 0,
            "byteLength" : 18048,
            "byteOffset" : 18048
        },
        {
            "buffer" : 0,
            "byteLength" : 12032,
            "byteOffset" : 36096
        },
        {
            "buffer" : 0,
            "byteLength" : 16896,
            "byteOffset" : 48128
        },
        {
            "buffer" : 0,
            "byteLength" : 1201316,
            "byteOffset" : 65024
        },
        {
            "buffer" : 0,
            "byteLength" : 859554,
            "byteOffset" : 1266340
        },
        {
            "buffer" : 0,
            "byteLength" : 39745,
            "byteOffset" : 2125896
        },
        {
            "buffer" : 0,
            "byteLength" : 17952,
            "byteOffset" : 2165644
        },
        {
            "buffer" : 0,
            "byteLength" : 17952,
            "byteOffset" : 2183596
        },
        {
            "buffer" : 0,
            "byteLength" : 11968,
            "byteOffset" : 2201548
        },
        {
            "buffer" : 0,
            "byteLength" : 8736,
            "byteOffset" : 2213516
        },
        {
            "buffer" : 0,
            "byteLength" : 6144,
            "byteOffset" : 2222252
        },
        {
            "buffer" : 0,
            "byteLength" : 6144,
            "byteOffset" : 2228396
        },
        {
            "buffer" : 0,
            "byteLength" : 4096,
            "byteOffset" : 2234540
        },
        {
            "buffer" : 0,
            "byteLength" : 1728,
            "byteOffset" : 2238636
        },
        {
            "buffer" : 0,
            "byteLength" : 37212,
            "byteOffset" : 2240364
        },
        {
            "buffer" : 0,
            "byteLength" : 37212,
            "byteOffset" : 2277576
        },
        {
            "buffer" : 0,
            "byteLength" : 24808,
            "byteOffset" : 2314788
        },
        {
            "buffer" : 0,
            "byteLength" : 28794,
            "byteOffset" : 2339596
        },
        {
            "buffer" : 0,
            "byteLength" : 20388,
            "byteOffset" : 2368392
        },
        {
            "buffer" : 0,
            "byteLength" : 20388,
            "byteOffset" : 2388780
        },
        {
            "buffer" : 0,
            "byteLength" : 13592,
            "byteOffset" : 2409168
        },
        {
            "buffer" : 0,
            "byteLength" : 13656,
            "byteOffset" : 2422760
        }
    ],
    "samplers" : [
        {
            "magFilter" : 9729,
            "minFilter" : 9987
        }
    ],
    "buffers" : [
        {
            "byteLength" : 2436416,
            "uri" : "data:application/octet-stream;base64,"
        }
    ]
}
